<mxfile host="app.diagrams.net" agent="Mozilla/5.0 (Windows NT 10.0; Win64; x64) AppleWebKit/537.36 (KHTML, like Gecko) Chrome/129.0.0.0 Safari/537.36" version="24.7.17">
  <diagram name="PÃ¡gina-1" id="f9Z_mnRSqajW9AsvAXgP">
    <mxGraphModel dx="1366" dy="743" grid="1" gridSize="10" guides="1" tooltips="1" connect="1" arrows="1" fold="1" page="1" pageScale="1" pageWidth="827" pageHeight="1169" math="0" shadow="0">
      <root>
        <mxCell id="0" />
        <mxCell id="1" parent="0" />
        <mxCell id="tMEonqaPXTZB2WHjisNH-39" value="" style="rounded=0;whiteSpace=wrap;html=1;" vertex="1" parent="1">
          <mxGeometry y="120" width="860" height="410" as="geometry" />
        </mxCell>
        <mxCell id="tMEonqaPXTZB2WHjisNH-1" value="" style="rounded=1;whiteSpace=wrap;html=1;" vertex="1" parent="1">
          <mxGeometry x="10" y="140" width="660" height="370" as="geometry" />
        </mxCell>
        <mxCell id="tMEonqaPXTZB2WHjisNH-2" value="" style="rounded=1;whiteSpace=wrap;html=1;" vertex="1" parent="1">
          <mxGeometry x="40" y="180" width="600" height="310" as="geometry" />
        </mxCell>
        <mxCell id="tMEonqaPXTZB2WHjisNH-3" value="&lt;font style=&quot;font-size: 18px;&quot;&gt;Cluster&lt;/font&gt;" style="text;html=1;align=center;verticalAlign=middle;whiteSpace=wrap;rounded=0;" vertex="1" parent="1">
          <mxGeometry x="60" y="140" width="80" height="40" as="geometry" />
        </mxCell>
        <mxCell id="tMEonqaPXTZB2WHjisNH-5" value="&lt;font style=&quot;font-size: 18px;&quot;&gt;Node&lt;/font&gt;" style="text;html=1;align=center;verticalAlign=middle;whiteSpace=wrap;rounded=0;" vertex="1" parent="1">
          <mxGeometry x="50" y="180" width="80" height="40" as="geometry" />
        </mxCell>
        <mxCell id="tMEonqaPXTZB2WHjisNH-6" value="" style="rounded=1;whiteSpace=wrap;html=1;glass=0;dashed=1;" vertex="1" parent="1">
          <mxGeometry x="60" y="245" width="170" height="125" as="geometry" />
        </mxCell>
        <mxCell id="tMEonqaPXTZB2WHjisNH-7" value="" style="rounded=1;whiteSpace=wrap;html=1;" vertex="1" parent="1">
          <mxGeometry x="100" y="230" width="90" height="30" as="geometry" />
        </mxCell>
        <mxCell id="tMEonqaPXTZB2WHjisNH-8" value="Service" style="text;html=1;align=center;verticalAlign=middle;whiteSpace=wrap;rounded=0;" vertex="1" parent="1">
          <mxGeometry x="115" y="230" width="60" height="30" as="geometry" />
        </mxCell>
        <mxCell id="tMEonqaPXTZB2WHjisNH-9" value="" style="rounded=1;whiteSpace=wrap;html=1;" vertex="1" parent="1">
          <mxGeometry x="72.5" y="300" width="145" height="50" as="geometry" />
        </mxCell>
        <mxCell id="tMEonqaPXTZB2WHjisNH-10" value="Statefulset" style="text;html=1;align=center;verticalAlign=middle;whiteSpace=wrap;rounded=0;" vertex="1" parent="1">
          <mxGeometry x="110" y="270" width="70" height="30" as="geometry" />
        </mxCell>
        <mxCell id="tMEonqaPXTZB2WHjisNH-11" value="Postgres" style="text;html=1;align=center;verticalAlign=middle;whiteSpace=wrap;rounded=0;" vertex="1" parent="1">
          <mxGeometry x="115" y="310" width="60" height="30" as="geometry" />
        </mxCell>
        <mxCell id="tMEonqaPXTZB2WHjisNH-12" value="&lt;font style=&quot;font-size: 10px;&quot;&gt;Pod&lt;/font&gt;" style="text;html=1;align=center;verticalAlign=middle;whiteSpace=wrap;rounded=0;" vertex="1" parent="1">
          <mxGeometry x="60" y="292.5" width="60" height="30" as="geometry" />
        </mxCell>
        <mxCell id="tMEonqaPXTZB2WHjisNH-16" value="" style="endArrow=classic;html=1;rounded=0;entryX=0.358;entryY=0.879;entryDx=0;entryDy=0;entryPerimeter=0;" edge="1" parent="1">
          <mxGeometry width="50" height="50" relative="1" as="geometry">
            <mxPoint x="144.76" y="350" as="sourcePoint" />
            <mxPoint x="144.79999999999995" y="400.07000000000016" as="targetPoint" />
          </mxGeometry>
        </mxCell>
        <mxCell id="tMEonqaPXTZB2WHjisNH-19" value="" style="rounded=1;whiteSpace=wrap;html=1;" vertex="1" parent="1">
          <mxGeometry x="85" y="420" width="120" height="40" as="geometry" />
        </mxCell>
        <mxCell id="tMEonqaPXTZB2WHjisNH-17" value="" style="rounded=1;whiteSpace=wrap;html=1;" vertex="1" parent="1">
          <mxGeometry x="125" y="400" width="40" height="30" as="geometry" />
        </mxCell>
        <mxCell id="tMEonqaPXTZB2WHjisNH-18" value="pvc" style="text;html=1;align=center;verticalAlign=middle;whiteSpace=wrap;rounded=0;" vertex="1" parent="1">
          <mxGeometry x="115" y="400" width="60" height="30" as="geometry" />
        </mxCell>
        <mxCell id="tMEonqaPXTZB2WHjisNH-20" value="Volume" style="text;html=1;align=center;verticalAlign=middle;whiteSpace=wrap;rounded=0;" vertex="1" parent="1">
          <mxGeometry x="115" y="430" width="60" height="30" as="geometry" />
        </mxCell>
        <mxCell id="tMEonqaPXTZB2WHjisNH-21" value="" style="rounded=1;whiteSpace=wrap;html=1;glass=0;dashed=1;" vertex="1" parent="1">
          <mxGeometry x="280" y="245" width="330" height="125" as="geometry" />
        </mxCell>
        <mxCell id="tMEonqaPXTZB2WHjisNH-22" value="" style="rounded=1;whiteSpace=wrap;html=1;" vertex="1" parent="1">
          <mxGeometry x="395" y="230" width="90" height="30" as="geometry" />
        </mxCell>
        <mxCell id="tMEonqaPXTZB2WHjisNH-23" value="Service" style="text;html=1;align=center;verticalAlign=middle;whiteSpace=wrap;rounded=0;" vertex="1" parent="1">
          <mxGeometry x="410" y="230" width="60" height="30" as="geometry" />
        </mxCell>
        <mxCell id="tMEonqaPXTZB2WHjisNH-24" value="Deployment" style="text;html=1;align=center;verticalAlign=middle;whiteSpace=wrap;rounded=0;" vertex="1" parent="1">
          <mxGeometry x="405" y="270" width="70" height="30" as="geometry" />
        </mxCell>
        <mxCell id="tMEonqaPXTZB2WHjisNH-25" value="replicas: 2&lt;div&gt;hpa: 1 ... 5&lt;/div&gt;" style="text;html=1;align=center;verticalAlign=middle;whiteSpace=wrap;rounded=0;" vertex="1" parent="1">
          <mxGeometry x="540" y="250" width="60" height="30" as="geometry" />
        </mxCell>
        <mxCell id="tMEonqaPXTZB2WHjisNH-29" value="" style="rounded=1;whiteSpace=wrap;html=1;" vertex="1" parent="1">
          <mxGeometry x="295" y="307.5" width="145" height="50" as="geometry" />
        </mxCell>
        <mxCell id="tMEonqaPXTZB2WHjisNH-30" value="fastfood-api" style="text;html=1;align=center;verticalAlign=middle;whiteSpace=wrap;rounded=0;" vertex="1" parent="1">
          <mxGeometry x="325" y="317.5" width="85" height="30" as="geometry" />
        </mxCell>
        <mxCell id="tMEonqaPXTZB2WHjisNH-31" value="&lt;font style=&quot;font-size: 10px;&quot;&gt;Pod&lt;/font&gt;" style="text;html=1;align=center;verticalAlign=middle;whiteSpace=wrap;rounded=0;" vertex="1" parent="1">
          <mxGeometry x="282.5" y="300" width="60" height="30" as="geometry" />
        </mxCell>
        <mxCell id="tMEonqaPXTZB2WHjisNH-32" value="" style="rounded=1;whiteSpace=wrap;html=1;" vertex="1" parent="1">
          <mxGeometry x="452.5" y="307.5" width="145" height="50" as="geometry" />
        </mxCell>
        <mxCell id="tMEonqaPXTZB2WHjisNH-34" value="&lt;font style=&quot;font-size: 10px;&quot;&gt;Pod&lt;/font&gt;" style="text;html=1;align=center;verticalAlign=middle;whiteSpace=wrap;rounded=0;" vertex="1" parent="1">
          <mxGeometry x="440" y="300" width="60" height="30" as="geometry" />
        </mxCell>
        <mxCell id="tMEonqaPXTZB2WHjisNH-35" value="fastfood-api" style="text;html=1;align=center;verticalAlign=middle;whiteSpace=wrap;rounded=0;" vertex="1" parent="1">
          <mxGeometry x="482.5" y="317.5" width="85" height="30" as="geometry" />
        </mxCell>
        <mxCell id="tMEonqaPXTZB2WHjisNH-36" value="" style="endArrow=classic;html=1;rounded=0;" edge="1" parent="1">
          <mxGeometry width="50" height="50" relative="1" as="geometry">
            <mxPoint x="580" y="334.66" as="sourcePoint" />
            <mxPoint x="740" y="334.66" as="targetPoint" />
          </mxGeometry>
        </mxCell>
        <mxCell id="tMEonqaPXTZB2WHjisNH-37" value="" style="html=1;verticalLabelPosition=bottom;align=center;labelBackgroundColor=#ffffff;verticalAlign=top;strokeWidth=2;strokeColor=#6c8ebf;shadow=0;dashed=0;shape=mxgraph.ios7.icons.cloud;fillStyle=solid;fillColor=#dae8fc;" vertex="1" parent="1">
          <mxGeometry x="750" y="286.25" width="90" height="42.5" as="geometry" />
        </mxCell>
        <mxCell id="tMEonqaPXTZB2WHjisNH-38" value="Docker Hub&lt;div&gt;Image&lt;/div&gt;" style="text;html=1;align=center;verticalAlign=top;whiteSpace=wrap;rounded=0;perimeterSpacing=0;strokeWidth=0;" vertex="1" parent="1">
          <mxGeometry x="752.5" y="330" width="85" height="30" as="geometry" />
        </mxCell>
      </root>
    </mxGraphModel>
  </diagram>
</mxfile>
